<svg>
    <g transform="matrix(0 -0.35878441502645253 0.35878441502645253 0 135.58765469960312 245.25694034258711)" style="" id="logo-logo"  >
        <g transform="matrix(2.475 0 0 -2.475 42.237784129105705 -57.425201793622136)"  >
            <path style="stroke: none; stroke-width: 1; stroke-dasharray: none; stroke-linecap: butt; stroke-dashoffset: 0; stroke-linejoin: miter; stroke-miterlimit: 4; fill: rgb(63,182,24); fill-rule: nonzero; opacity: 1;"  paint-order="stroke"  transform=" translate(-179.56819510887564, -153.2056201624904)" d="m 203.909 170.658 l -0.964 -2.14 c -0.763 -1.698 -2.814 -3.092 -4.554 -3.092 v 0 H 143.3 c -1.743 0 -3.794 -1.389 -4.564 -3.09 v 0 l -8.052 -17.879 c -0.764 -1.701 0.037 -3.092 1.775 -3.092 v 0 h 55.092 c 1.741 0 2.542 -1.391 1.775 -3.091 v 0 l -1.06 -2.351 c -0.767 -1.699 0.023 -2.425 1.746 -1.605 v 0 l 37.105 17.571 c 1.722 0.818 2.145 2.294 0.933 3.28 v 0 l -20.546 16.78 c -0.401 0.327 -0.846 0.482 -1.289 0.482 v 0 c -0.898 0 -1.79 -0.637 -2.306 -1.773" stroke-linecap="round" />
        </g>
        <g transform="matrix(2.475 0 0 -2.475 -42.238215870894294 57.427798206377815)"  >
            <path style="stroke: none; stroke-width: 1; stroke-dasharray: none; stroke-linecap: butt; stroke-dashoffset: 0; stroke-linejoin: miter; stroke-miterlimit: 4; fill: rgb(255,0,57); fill-rule: nonzero; opacity: 1;"  paint-order="stroke"  transform=" translate(-145.43171848056556, -106.79366921814926)" d="M 134.992 125.681 L 97.885 108.106 c -1.724 -0.815 -2.146 -2.291 -0.937 -3.279 v 0 L 117.5 88.052 c 1.208 -0.99 2.821 -0.407 3.59 1.291 v 0 l 0.967 2.14 c 0.765 1.698 2.811 3.085 4.554 3.085 v 0 h 55.088 c 1.745 0 3.8 1.391 4.56 3.092 v 0 l 8.057 17.881 c 0.762 1.702 -0.033 3.092 -1.775 3.092 v 0 h -55.089 c -1.746 0 -2.543 1.388 -1.777 3.088 v 0 l 1.06 2.356 c 0.55 1.225 0.298 1.941 -0.53 1.941 v 0 c -0.322 0 -0.731 -0.108 -1.213 -0.337" stroke-linecap="round" />
        </g>
        <g transform="matrix(2.475 0 0 -2.475 -0.0012158708943275087 0.006798206377851557)"  >
            <path style="stroke: none; stroke-width: 1; stroke-dasharray: none; stroke-linecap: butt; stroke-dashoffset: 0; stroke-linejoin: miter; stroke-miterlimit: 4; fill: rgb(235,153,110); fill-rule: nonzero; opacity: 1;"  paint-order="stroke"  transform=" translate(31.67323968744914, -12.028499999999998)" d="m 0 0 l -49.372 43.669 h 0.002 c 0 0 -0.937 0.923 -0.807 2.143 c 0.122 1.102 1.042 1.553 1.271 1.646 h -1.967 c -0.689 0 -1.429 -0.224 -2.115 -0.592 c -1.049 -0.564 -1.983 -1.47 -2.449 -2.499 l -8.052 -17.879 c -0.404 -0.902 -0.359 -1.704 0.025 -2.268 l 49.534 -43.814 c 0.075 -0.076 0.919 -0.963 0.798 -2.144 c -0.121 -1.113 -1.05 -1.568 -1.277 -1.663 h 1.971 c 0.688 0 1.422 0.228 2.111 0.605 l 0.004 0.016 v -0.004 c 1.036 0.567 1.954 1.465 2.41 2.475 L 0.144 -2.428 C 0.584 -1.441 0.489 -0.566 0 0" stroke-linecap="round" />
        </g>
        <g transform="matrix(2.475 0 0 -2.475 33.32178412910571 57.905798206377824)"  >
            <linearGradient id="SVGID_7" gradientUnits="userSpaceOnUse" gradientTransform="matrix(7.9523973 -4.2014127 -4.2014127 -7.9523973 184.75195 107.50391)"  x1="0" y1="1.4210854715202004e-14" x2="1" y2="1.4210854715202004e-14">
                <stop offset="0%" style="stop-color:rgb(225,116,63);stop-opacity: 1"/>
                <stop offset="100%" style="stop-color:rgb(235,153,110);stop-opacity: 1"/>
            </linearGradient>
            <path style="stroke: none; stroke-width: 1; stroke-dasharray: none; stroke-linecap: butt; stroke-dashoffset: 0; stroke-linejoin: miter; stroke-miterlimit: 4; fill: url(#SVGID_7); fill-rule: nonzero; opacity: 1;"  paint-order="stroke"  transform=" translate(-175.96550956675, -106.60050000000001)" d="m 157.337 118.633 l 22.906 -20.258 c 0.075 -0.076 0.919 -0.963 0.798 -2.144 v 0 c -0.121 -1.113 -1.05 -1.568 -1.278 -1.663 v 0 h 1.936 c 0.215 0 0.435 0.026 0.654 0.063 v 0 c 0.017 0.006 0.038 0.011 0.058 0.015 v 0 c 0.194 0.037 0.391 0.087 0.582 0.153 v 0 c 0.034 0.012 0.069 0.026 0.104 0.038 v 0 c 0.191 0.068 0.385 0.154 0.573 0.247 v 0 c 0.019 0.006 0.039 0.014 0.054 0.023 v 0 c 0.042 0.026 0.079 0.054 0.125 0.078 v 0 v 0.004 v -0.004 c 0.245 0.135 0.483 0.292 0.71 0.458 v 0 c 0.029 0.019 0.063 0.047 0.097 0.076 v 0 c 0.186 0.14 0.362 0.297 0.531 0.46 v 0 c 0.043 0.047 0.092 0.089 0.138 0.138 v 0 c 0.147 0.151 0.282 0.318 0.408 0.486 v 0 c 0.042 0.055 0.09 0.11 0.13 0.165 v 0 c 0.152 0.221 0.289 0.453 0.396 0.692 v 0 l 8.057 17.881 c 0.102 0.239 0.176 0.465 0.219 0.685 v 0 c 0.011 0.048 0.011 0.092 0.022 0.14 v 0 c 0.029 0.173 0.045 0.345 0.033 0.507 v 0 c 0 0.035 -0.004 0.067 -0.01 0.101 v 0 c -0.02 0.172 -0.055 0.345 -0.113 0.492 v 0 c -0.002 0.012 -0.008 0.028 -0.016 0.041 v 0 c -0.068 0.173 -0.161 0.326 -0.278 0.461 v 0 l -0.33 0.292 c -0.338 0.229 -0.766 0.373 -1.302 0.373 v 0 z" stroke-linecap="round" />
        </g>
        <g transform="matrix(2.475 0 0 -2.475 -33.25921587089431 -57.89520179362211)"  >
            <linearGradient id="SVGID_8" gradientUnits="userSpaceOnUse" gradientTransform="matrix(-7.9519668 4.5009298 4.5009298 7.9519668 143.67139 150.48291)"  x1="0" y1="0" x2="1" y2="0">
                <stop offset="0%" style="stop-color:rgb(78,167,127);stop-opacity: 1"/>
                <stop offset="100%" style="stop-color:rgb(120,183,150);stop-opacity: 1"/>
            </linearGradient>
            <path style="stroke: none; stroke-width: 1; stroke-dasharray: none; stroke-linecap: butt; stroke-dashoffset: 0; stroke-linejoin: miter; stroke-miterlimit: 4; fill: url(#SVGID_8); fill-rule: nonzero; opacity: 1;"  paint-order="stroke"  transform=" translate(-149.06, -153.39550000000003)" d="m 143.3 165.426 c -0.197 0 -0.395 -0.024 -0.599 -0.055 v 0 c -0.08 -0.014 -0.166 -0.037 -0.247 -0.057 v 0 c -0.114 -0.025 -0.227 -0.053 -0.336 -0.087 v 0 c -0.109 -0.035 -0.223 -0.073 -0.327 -0.115 v 0 c -0.078 -0.031 -0.148 -0.065 -0.222 -0.096 v 0 c -0.13 -0.058 -0.26 -0.114 -0.384 -0.181 v 0 c 0 -0.003 0 -0.003 -0.006 -0.003 v 0 c -0.236 -0.133 -0.477 -0.283 -0.702 -0.449 v 0 c -0.045 -0.03 -0.086 -0.064 -0.127 -0.097 v 0 c -0.177 -0.137 -0.347 -0.287 -0.513 -0.442 v 0 c -0.054 -0.054 -0.105 -0.108 -0.156 -0.16 v 0 c -0.149 -0.149 -0.275 -0.31 -0.402 -0.474 v 0 c -0.045 -0.061 -0.097 -0.116 -0.136 -0.176 v 0 c -0.155 -0.225 -0.296 -0.458 -0.407 -0.698 v 0 l -8.052 -17.879 c -0.101 -0.225 -0.171 -0.437 -0.214 -0.649 v 0 c -0.01 -0.029 -0.008 -0.056 -0.01 -0.085 v 0 c -0.039 -0.184 -0.06 -0.358 -0.06 -0.522 v 0 v -0.022 c 0.013 -0.378 0.118 -0.714 0.309 -0.991 v 0 l 0.668 -0.593 c 0.302 -0.144 0.667 -0.23 1.082 -0.23 v 0 h 35.261 l -22.919 20.273 h 0.002 c 0 0 -0.937 0.923 -0.807 2.143 v 0 c 0.122 1.102 1.042 1.553 1.27 1.645 v 0 z" stroke-linecap="round" />
        </g>
    </g>
</svg>