<svg>
    <g transform="matrix(1.1023094414670604 0 0 1.1023094414670604 324.99881265794215 208.77132172605164)" style="" id="logo-logo"  >
        <g transform="matrix(0.1999 0 0 -0.1999 90.52808734205786 -42.339092369879154)"  >
            <path style="stroke: none; stroke-width: 1; stroke-dasharray: none; stroke-linecap: butt; stroke-dashoffset: 0; stroke-linejoin: miter; stroke-miterlimit: 10; fill: rgb(39,128,227); fill-rule: nonzero; opacity: 1;"  paint-order="stroke"  transform=" translate(-2086.220020275699, -1692.5417755797212)" d="m 2094.2 1827.36 l -10.07 -1.55 l -0.39 -211.86 c -0.02 -9.24 -6.82 -17.05 -15.96 -18.33 l -20.25 -2.85 c -2.43 -0.34 -4.25 -2.42 -4.25 -4.88 l -0.06 -30.53 l 69.47 9.76 c 9.27 1.3 16.17 9.23 16.19 18.59 l 0.34 211.59 c 0.03 18.64 -16.59 32.91 -35.02 30.06" stroke-linecap="round" />
        </g>
        <g transform="matrix(0.1999 0 0 -0.1999 88.26438734205789 -79.95709236987915)"  >
            <path style="stroke: none; stroke-width: 1; stroke-dasharray: none; stroke-linecap: butt; stroke-dashoffset: 0; stroke-linejoin: miter; stroke-miterlimit: 10; fill: rgb(39,128,227); fill-rule: nonzero; opacity: 1;"  paint-order="stroke"  transform=" translate(-2074.8972694524355, -1880.7042634462823)" d="m 2000.61 1865.38 c 2.31 -1.89 4.49 -3.85 6.59 -5.85 l 164.43 23.01 c -11.13 15.78 -42.41 21.93 -68.16 18.35 l -122.75 -15.68 c -2.81 -0.35 -3.52 -4.1 -1.03 -5.46 v 0 c 7.44 -4.04 14.36 -9.02 20.92 -14.37" stroke-linecap="round" />
        </g>
        <g transform="matrix(0.1999 0 0 -0.1999 91.86048734205787 -43.17709236987912)"  >
            <path style="stroke: none; stroke-width: 1; stroke-dasharray: none; stroke-linecap: butt; stroke-dashoffset: 0; stroke-linejoin: miter; stroke-miterlimit: 10; fill: rgb(116,173,234); fill-rule: nonzero; opacity: 1;"  paint-order="stroke"  transform=" translate(-2092.8850143711575, -1696.7335323347613)" d="m 2171.63 1882.54 l -164.34 -23 c 11.04 -10.35 17.99 -21.03 21.89 -34.01 c 1.24 -4.09 5.22 -6.71 9.46 -6.12 l 45.49 6.4 l 10.07 1.55 c 18.43 2.85 35.05 -11.42 35.02 -30.06 l -0.34 -211.59 c -0.02 -9.36 -6.92 -17.29 -16.19 -18.59 l -69.47 -9.76 v -38.67 c 0 -4.81 4.34 -8.46 9.08 -7.65 l 88.78 15.3 c 21.1 2.97 36.81 21 36.85 42.31 l 0.55 295.05 c 0.01 7.23 -2.59 13.78 -6.85 18.84" stroke-linecap="round" />
        </g>
        <g transform="matrix(0.1999 0 0 -0.1999 -49.69701265794214 -16.28879236987916)"  >
            <path style="stroke: none; stroke-width: 1; stroke-dasharray: none; stroke-linecap: butt; stroke-dashoffset: 0; stroke-linejoin: miter; stroke-miterlimit: 10; fill: rgb(39,128,227); fill-rule: nonzero; opacity: 1;"  paint-order="stroke"  transform=" translate(-1384.824907734696, -1562.2404900263814)" d="m 1477.38 1617.53 c -5.37 -30.32 -27.21 -46.14 -48.78 -35.33 c -21.57 10.81 -34.71 44.14 -29.34 74.46 c 5.37 30.32 27.2 46.14 48.78 35.33 c 21.57 -10.8 34.71 -44.14 29.34 -74.46 z m -6.16 -181.89 c -5.37 -30.32 -27.21 -46.14 -48.78 -35.33 c -21.57 10.81 -34.71 44.14 -29.34 74.46 c 5.37 30.32 27.2 46.14 48.78 35.33 c 21.57 -10.8 34.71 -44.14 29.34 -74.46 z m -100.79 235.16 c -4.03 -30.42 -25.11 -46.29 -47.08 -35.45 c -21.98 10.83 -36.53 44.27 -32.51 74.69 c 4.03 30.41 25.11 46.28 47.08 35.45 c 21.98 -10.84 36.54 -44.28 32.51 -74.69 z m -3.47 -180.59 c -4.03 -30.41 -25.11 -46.28 -47.09 -35.45 c -21.97 10.84 -36.53 44.28 -32.5 74.69 c 4.02 30.42 25.1 46.29 47.08 35.46 c 21.98 -10.84 36.53 -44.28 32.51 -74.7 z m 125.1 272.83 c -10.22 3.82 -20.23 8.35 -29.99 13.59 l -179.67 96.45 c -16.42 9.58 -28.77 -5.14 -28.8 -19.16 v -410.55 c -0.07 -36.33 19.78 -69.78 51.69 -87.15 l 195.94 -106.58 l 0.14 -0.08 c 6.62 -3.6 14.68 1.2 14.68 8.73 v 469.98 c 0 15.44 -9.52 29.36 -23.99 34.77" stroke-linecap="round" />
        </g>
        <g transform="matrix(0.1999 0 0 -0.1999 29.70848734205788 -8.256692369879147)"  >
            <path style="stroke: none; stroke-width: 1; stroke-dasharray: none; stroke-linecap: butt; stroke-dashoffset: 0; stroke-linejoin: miter; stroke-miterlimit: 10; fill: rgb(116,173,234); fill-rule: nonzero; opacity: 1;"  paint-order="stroke"  transform=" translate(-1782.005168603213, -1522.0641815067397)" d="m 1863.37 1552.5 c -33.52 -5.1 -61.54 19.76 -62.57 55.52 c -1.03 35.77 25.32 68.91 58.84 74.01 c 33.53 5.1 61.54 -19.76 62.57 -55.53 c 1.03 -35.77 -25.31 -68.9 -58.84 -74 z m -135.89 -169.64 c -33.53 -5.1 -61.54 19.76 -62.57 55.52 c -1.03 35.77 25.31 68.9 58.84 74.01 c 33.52 5.1 61.54 -19.76 62.57 -55.53 c 1.03 -35.77 -25.32 -68.9 -58.84 -74 z m 290.18 411.55 c -1.72 7.42 -8.92 12.23 -16.46 11.16 l -390.82 -55.32 c -11.46 -1.62 -22.92 -2.43 -34.31 -2.43 c -0.11 0 -0.22 0 -0.33 0 c -17.56 0.02 -31.91 -13.98 -31.91 -31.54 v -461.63 c 0 -9.86 8.72 -17.45 18.48 -16.08 l 371.94 52.27 c 48.8 6.86 85.13 48.57 85.22 97.85 l 0.71 383.33 c 0.02 7.63 -0.85 15.13 -2.52 22.39" stroke-linecap="round" />
        </g>
        <g transform="matrix(0.1999 0 0 -0.1999 1.2491873420578372 -79.26679236987917)"  >
            <path style="stroke: none; stroke-width: 1; stroke-dasharray: none; stroke-linecap: butt; stroke-dashoffset: 0; stroke-linejoin: miter; stroke-miterlimit: 10; fill: rgb(39,128,227); fill-rule: nonzero; opacity: 1;"  paint-order="stroke"  transform=" translate(-1639.653962364271, -1877.2514201699391)" d="m 1874.14 1857.81 l -270.47 -38.29 c -35.92 -5.09 -71.81 1.3 -103.78 18.46 l -100.19 53.79 c -3.19 1.71 -2.33 6.5 1.25 7 l 310.94 43.7 c 12.78 1.8 26.07 -0.61 37.42 -6.78 l 126.47 -68.8 c 4.11 -2.24 3 -8.43 -1.64 -9.08 z m 115.09 -13.71 c -6.15 5.83 -13.1 10.9 -20.74 15.06 l -195.93 106.59 c -18.65 10.14 -31.28 15.59 -53.78 12.09 l -403.82 -56.53 c -43.23 -6.79 -25.94 -20.68 -9.49 -29.09 l 169.74 -91.12 c 40.43 -21.71 85.83 -29.78 131.28 -23.35 l 378.7 53.61 c 6.15 0.87 8.56 8.47 4.04 12.74" stroke-linecap="round" />
        </g>
        <g transform="matrix(0.1999 0 0 -0.1999 1.2493873420578439 -79.90329236987918)"  >
            <path style="stroke: none; stroke-width: 1; stroke-dasharray: none; stroke-linecap: butt; stroke-dashoffset: 0; stroke-linejoin: miter; stroke-miterlimit: 10; fill: rgb(116,173,234); fill-rule: nonzero; opacity: 1;"  paint-order="stroke"  transform=" translate(-1639.6550000000002, -1880.435)" d="m 1709.76 1880.44 c 0 -12.41 -31.39 -22.46 -70.11 -22.46 c -38.71 0 -70.1 10.05 -70.1 22.46 c 0 12.4 31.39 22.45 70.1 22.45 c 38.72 0 70.11 -10.05 70.11 -22.45" stroke-linecap="round" />
        </g>
        <g transform="matrix(0.1999 0 0 -0.1999 45.66248734205789 50.21310763012076)"  >
            <path style="stroke: none; stroke-width: 1; stroke-dasharray: none; stroke-linecap: butt; stroke-dashoffset: 0; stroke-linejoin: miter; stroke-miterlimit: 10; fill: rgb(39,128,227); fill-rule: nonzero; opacity: 1;"  paint-order="stroke"  transform=" translate(-1861.8059943749831, -1229.6027881650687)" d="m 2157.71 1280.14 l -94.25 69.3 c -9.02 6.63 -21.89 3.06 -25.89 -7.3 c -5.13 -13.27 -12.51 -25.66 -21.95 -36.59 c -19.85 -22.99 -47.43 -37.99 -77.66 -42.24 l -384.05 -52.22 c -5.87 -0.8 -10.21 -5.81 -10.15 -11.73 l 0.74 -78.43 c 0.09 -8.88 8.07 -15.68 16.87 -14.36 l 574.91 86.29 c 35.6 5.01 65.77 55.53 21.43 87.28" stroke-linecap="round" />
        </g>
        <g transform="matrix(0.1999 0 0 -0.1999 -66.29251265794215 41.90970763012089)"  >
            <path style="stroke: none; stroke-width: 1; stroke-dasharray: none; stroke-linecap: butt; stroke-dashoffset: 0; stroke-linejoin: miter; stroke-miterlimit: 10; fill: rgb(39,128,227); fill-rule: nonzero; opacity: 1;"  paint-order="stroke"  transform=" translate(-1301.815429446272, -1271.1356640602144)" d="m 1290.34 1331.59 c -32.07 17.3 -54.8 47.03 -63.46 81.3 c -2.15 8.51 -10.38 14.07 -19.05 12.85 l -84.41 -11.87 c -35.61 -5.01 -50.51 -70.55 -19.92 -87.56 l 402.17 -209.08 c 5.05 -2.62 11.04 1.02 10.99 6.67 l -0.76 79.66 c -0.07 7.12 -4.1 13.65 -10.46 16.93 l -215.1 111.1" stroke-linecap="round" />
        </g>
        <g transform="matrix(0.1999 0 0 -0.1999 32.01508734205788 84.38980763012086)"  >
            <path style="stroke: none; stroke-width: 1; stroke-dasharray: none; stroke-linecap: butt; stroke-dashoffset: 0; stroke-linejoin: miter; stroke-miterlimit: 10; fill: rgb(116,173,234); fill-rule: nonzero; opacity: 1;"  paint-order="stroke"  transform=" translate(-1793.542842180925, -1058.6536445270604)" d="m 1561.48 1070.9 c -13.46 -1.89 -15.71 -12.98 -15.58 -26.55 l 0.47 -48.772 c 0.07 -7.867 7.11 -13.918 14.91 -12.816 l 463.19 65.158 c 9.68 1.36 16.81 9.64 16.72 19.4 l -0.45 47.77 c -0.12 11.91 -10.76 21.05 -22.57 19.39 l -456.69 -63.58" stroke-linecap="round" />
        </g>
        <g transform="matrix(0.1999 0 0 -0.1999 -58.83851265794215 71.45040763012088)"  >
            <path style="stroke: none; stroke-width: 1; stroke-dasharray: none; stroke-linecap: butt; stroke-dashoffset: 0; stroke-linejoin: miter; stroke-miterlimit: 10; fill: rgb(116,173,234); fill-rule: nonzero; opacity: 1;"  paint-order="stroke"  transform=" translate(-1339.0999023470395, -1123.3754263899807)" d="m 1501.57 1080.96 l -322.14 172.67 c -8.41 4.51 -18.51 -1.54 -18.42 -11.02 l 0.38 -40.33 c -0.42 -9.57 1.75 -20.47 12.84 -26.06 l 330.88 -183.572 c 5.47 -3.039 12.14 0.883 12.08 7.09 l -0.54 55.952 c -0.1 10.48 -5.86 20.14 -15.08 25.27" stroke-linecap="round" />
        </g>
    </g>


</svg>